<?xml version="1.0" encoding="UTF-8"?>
<!DOCTYPE svg PUBLIC "-//W3C//DTD SVG 1.1//EN" "http://www.w3.org/Graphics/SVG/1.1/DTD/svg11.dtd">
<svg version="1.1" xmlns="http://www.w3.org/2000/svg" xmlns:xlink="http://www.w3.org/1999/xlink" x="0" y="0" width="432" height="159" viewBox="0, 0, 432, 159">
  <g id="Layer_1">
    <path d="M0.146,110.189 C9.115,118.195 18.456,119.6 28.407,124.694 L0.324,158.817 L0.146,110.189" fill="#8FD1E9"/>
    <path d="M178.43,1.031 C161.56,3.343 146.142,5.922 130.869,9.295 C57.238,25.556 9.78,75.023 79.966,102.047 C74.096,111.145 68.756,119.979 62.885,129.077 C23.941,120.287 8.722,113.421 0.146,98.802 L0.146,0.534 L178.402,0.534 L178.43,1.031" fill="#58AFD6"/>
    <path d="M178.43,72.657 C178.43,50.459 178.43,33.3 178.43,11.102 C150.401,13.375 57.879,23.261 52.96,68.739 C54.675,93.281 81.837,99.62 105.901,102.496 C86.221,98.046 72.312,90.767 73.027,77.88 C73.38,71.507 75.476,67.887 79.969,63.602 C104.397,40.3 153.352,49.138 178.43,72.657" fill="#8FD1E9"/>
    <path d="M178.43,81.39 C152.577,56.039 118.858,48.633 92.089,60.648 C136.742,56.174 137.159,82.893 131.235,102.441 C145.504,107.05 164.162,113.843 178.43,118.453 C178.43,107.778 178.43,92.065 178.43,81.39" fill="#58AFD6"/>
    <path d="M102.642,63.195 C116.105,63.195 127.024,70.935 127.024,80.48 C127.024,90.025 116.105,97.765 102.642,97.765 C89.179,97.765 78.261,90.025 78.261,80.48 C78.261,70.935 89.179,63.195 102.642,63.195" fill="#C7E7F1"/>
    <path d="M37.504,108.249 L42.963,108.249 L54.608,96.026 L61.158,98.471 L75.714,108.249 L84.811,94.396 L94.154,93.423 L114.287,76.062 L132.846,85.025 L140.124,92.767 L178.306,105.369 L178.445,158.772 L0.264,158.772 L0.099,141.824 L37.504,108.249" fill="#8FD1E9"/>
    <path d="M40.23,136.454 L84.34,89.699 L92.483,87.896 L112.007,68.578 L132.398,78.664 L178.181,98.763 L178.201,106.603 L162.107,100.441 L117.215,121.497 L146.529,94.817 L118.158,83.072 L54.107,133.856 L40.23,136.454" fill="#0073A2"/>
    <path d="M36.777,100.134 L0.179,137.264 L0.183,146.558 L27.179,140.541 L58.611,101.589 L69.891,107.412 L75.418,99.702 L54.776,89.129 L42.944,100.457 L36.777,100.134" fill="#0073A2"/>
    <path d="M0.156,146.258 C59.124,129.749 117.81,120.821 178.446,120.982 L178.447,158.753 L0.146,158.768 L0.156,146.258" fill="#0073A2"/>
    <path d="M54.524,135.537 C50.272,136.181 44.426,137.945 43.359,139.016 C51.208,138.62 161.198,144.889 147.293,150.118 C140.146,153.581 124.484,156.326 92.308,158.757 L0.146,158.768 C38.409,154.768 117.469,151.04 116.211,149.53 C116.798,146.677 35.947,141.991 32.507,140.145 C36.208,137.809 47.301,135.701 54.524,135.537" fill="#8FD1E9"/>
    <path d="M190.327,49.702 L199.512,4.026 L200.272,4.026 L216.966,32.831 L232.702,4.026 L233.493,4.026 L242.741,49.702 L232.702,49.702 L228.953,29.499 L217.081,51.316 L216.383,51.316 L203.626,29.197 L199.752,49.702 L190.327,49.702 z M255.089,35.934 C255.089,38.278 255.588,40.173 256.599,41.6 C257.609,43.037 258.89,43.756 260.462,43.756 C262.024,43.756 263.305,43.037 264.315,41.59 C265.326,40.142 265.825,38.257 265.825,35.934 C265.825,33.643 265.326,31.758 264.315,30.311 C263.305,28.853 262.024,28.124 260.462,28.124 C258.89,28.124 257.609,28.842 256.599,30.29 C255.588,31.738 255.089,33.623 255.089,35.934 z M245.32,35.945 C245.32,31.571 246.747,27.968 249.611,25.135 C252.464,22.313 256.078,20.897 260.452,20.897 C264.847,20.897 268.481,22.313 271.345,25.135 C274.209,27.968 275.646,31.571 275.646,35.945 C275.646,40.319 274.209,43.922 271.345,46.755 C268.481,49.598 264.847,51.014 260.452,51.014 C256.099,51.014 252.485,49.598 249.621,46.755 C246.757,43.922 245.32,40.319 245.32,35.945 z M290.076,49.702 L280.526,49.702 L280.526,22.209 L289.347,22.209 L289.347,26.812 C290.805,25.01 292.367,23.656 294.013,22.771 C295.658,21.886 297.449,21.449 299.387,21.449 C302.292,21.449 304.5,22.282 305.999,23.948 C307.509,25.614 308.259,28.062 308.259,31.269 L308.259,49.702 L298.772,49.702 L298.772,33.956 C298.772,32.508 298.48,31.425 297.887,30.686 C297.293,29.957 296.418,29.592 295.262,29.592 C293.596,29.592 292.315,30.155 291.42,31.269 C290.524,32.394 290.076,34.019 290.076,36.153 L290.076,49.702 z M316.118,40.454 L316.118,29.436 L312.119,29.436 L312.119,22.209 L316.118,22.209 L316.118,13.971 L325.887,12.659 L325.887,22.209 L332.385,22.209 L332.385,29.436 L325.887,29.436 L325.887,41.121 C325.887,43.61 326.22,45.401 326.897,46.515 C327.563,47.619 328.823,48.64 330.677,49.577 L319.815,50.317 C318.451,49.66 317.493,48.692 316.941,47.401 C316.389,46.109 316.118,43.797 316.118,40.454 z M353.616,29.197 C353.043,28.874 352.501,28.634 351.981,28.499 C351.471,28.353 350.95,28.28 350.45,28.28 C348.638,28.28 347.117,29.04 345.878,30.551 C344.639,32.071 344.014,33.977 344.014,36.278 C344.014,38.434 344.555,40.236 345.649,41.662 C346.732,43.1 348.055,43.818 349.627,43.818 C350.252,43.818 350.898,43.651 351.554,43.318 C352.22,42.975 352.907,42.464 353.616,41.777 L353.616,29.197 z M363.197,22.209 L363.197,39.392 C363.197,41.548 363.238,43.36 363.322,44.818 C363.405,46.286 363.52,47.536 363.686,48.577 L354.803,51.014 L353.949,48.39 C352.751,49.285 351.575,49.952 350.429,50.379 C349.283,50.806 348.076,51.014 346.815,51.014 C343.274,51.014 340.296,49.598 337.89,46.776 C335.485,43.943 334.277,40.423 334.277,36.216 C334.277,31.779 335.631,28.114 338.338,25.229 C341.035,22.344 344.451,20.897 348.586,20.897 C349.544,20.897 350.533,21.032 351.575,21.292 C352.606,21.553 353.762,21.969 355.022,22.511 L363.197,22.209 z M379.345,49.702 L369.796,49.702 L369.796,22.209 L378.617,22.209 L378.617,26.812 C380.074,25.01 381.637,23.656 383.282,22.771 C384.927,21.886 386.719,21.449 388.656,21.449 C391.561,21.449 393.769,22.282 395.269,23.948 C396.779,25.614 397.528,28.062 397.528,31.269 L397.528,49.702 L388.041,49.702 L388.041,33.956 C388.041,32.508 387.75,31.425 387.156,30.686 C386.562,29.957 385.688,29.592 384.532,29.592 C382.865,29.592 381.584,30.155 380.689,31.269 C379.793,32.394 379.345,34.019 379.345,36.153 L379.345,49.702 z M421.488,29.197 C420.915,28.874 420.373,28.634 419.853,28.499 C419.342,28.353 418.822,28.28 418.322,28.28 C416.51,28.28 414.989,29.04 413.75,30.551 C412.511,32.071 411.886,33.977 411.886,36.278 C411.886,38.434 412.427,40.236 413.521,41.662 C414.604,43.1 415.926,43.818 417.499,43.818 C418.124,43.818 418.77,43.651 419.426,43.318 C420.092,42.975 420.779,42.464 421.488,41.777 L421.488,29.197 z M431.069,22.209 L431.069,39.392 C431.069,41.548 431.11,43.36 431.194,44.818 C431.277,46.286 431.391,47.536 431.558,48.577 L422.675,51.014 L421.821,48.39 C420.623,49.285 419.446,49.952 418.301,50.379 C417.155,50.806 415.947,51.014 414.687,51.014 C411.146,51.014 408.168,49.598 405.762,46.776 C403.357,43.943 402.149,40.423 402.149,36.216 C402.149,31.779 403.503,28.114 406.21,25.229 C408.907,22.344 412.323,20.897 416.458,20.897 C417.416,20.897 418.405,21.032 419.446,21.292 C420.477,21.553 421.633,21.969 422.893,22.511 L431.069,22.209 z M226.641,73.386 C224.725,71.418 222.788,69.949 220.819,69.002 C218.862,68.044 216.8,67.565 214.644,67.565 C210.895,67.565 207.833,68.856 205.459,71.439 C203.074,74.021 201.887,77.344 201.887,81.384 C201.887,85.435 203.063,88.716 205.427,91.225 C207.781,93.735 210.853,94.995 214.644,94.995 C216.883,94.995 219.112,94.527 221.34,93.589 C223.569,92.652 225.787,91.257 228.005,89.382 L227.339,101.129 C225.443,102.41 223.381,103.389 221.132,104.056 C218.882,104.732 216.55,105.066 214.123,105.066 C211.52,105.066 209.031,104.66 206.635,103.847 C204.251,103.035 202.043,101.827 200.033,100.244 C197.179,98.005 195.003,95.277 193.482,92.048 C191.972,88.83 191.212,85.31 191.212,81.509 C191.212,78.228 191.775,75.156 192.889,72.292 C194.013,69.429 195.638,66.888 197.773,64.69 C199.929,62.493 202.418,60.816 205.25,59.639 C208.073,58.473 211.051,57.89 214.186,57.89 C216.664,57.89 219.038,58.233 221.299,58.931 C223.558,59.618 225.714,60.67 227.765,62.066 L226.641,73.386 z M242.269,103.629 L232.594,103.629 L232.594,60.087 L242.269,58.775 L242.269,103.629 z M248.045,65.877 C248.045,64.409 248.555,63.17 249.576,62.16 C250.586,61.139 251.825,60.629 253.294,60.629 C254.783,60.629 256.022,61.129 257.032,62.139 C258.043,63.149 258.542,64.388 258.542,65.877 C258.542,67.346 258.032,68.596 257.011,69.637 C256.001,70.668 254.762,71.189 253.294,71.189 C251.867,71.189 250.638,70.668 249.596,69.616 C248.566,68.564 248.045,67.325 248.045,65.877 z M258.178,103.629 L248.503,103.629 L248.503,76.135 L258.178,74.823 L258.178,103.629 z M292.27,103.629 L282.72,103.629 L282.72,87.882 C282.72,86.476 282.418,85.404 281.825,84.644 C281.221,83.894 280.367,83.519 279.273,83.519 C277.701,83.519 276.482,84.092 275.597,85.227 C274.712,86.362 274.264,87.987 274.264,90.08 L274.264,103.629 L264.714,103.629 L264.714,76.135 L273.597,76.135 L273.597,80.738 C275.181,78.874 276.753,77.51 278.305,76.656 C279.867,75.802 281.554,75.375 283.387,75.375 C285.407,75.375 287.063,75.792 288.375,76.625 C289.687,77.458 290.802,78.791 291.718,80.624 C293.062,78.874 294.53,77.562 296.134,76.687 C297.727,75.813 299.466,75.375 301.33,75.375 C304.382,75.375 306.641,76.239 308.089,77.958 C309.547,79.676 310.276,82.332 310.276,85.925 L310.276,103.629 L300.726,103.629 L300.726,87.882 C300.726,86.476 300.424,85.404 299.831,84.644 C299.227,83.894 298.373,83.519 297.279,83.519 C295.686,83.519 294.457,84.092 293.582,85.227 C292.707,86.362 292.27,87.987 292.27,90.08 L292.27,103.629 z M334.256,83.123 C333.683,82.8 333.142,82.561 332.621,82.425 C332.111,82.28 331.59,82.207 331.09,82.207 C329.278,82.207 327.758,82.967 326.518,84.477 C325.279,85.997 324.654,87.903 324.654,90.205 C324.654,92.361 325.196,94.162 326.289,95.589 C327.372,97.026 328.695,97.745 330.267,97.745 C330.892,97.745 331.538,97.578 332.194,97.245 C332.861,96.901 333.548,96.391 334.256,95.704 L334.256,83.123 z M343.837,76.135 L343.837,93.319 C343.837,95.474 343.879,97.286 343.962,98.745 C344.045,100.213 344.16,101.462 344.326,102.504 L335.443,104.941 L334.589,102.316 C333.391,103.212 332.215,103.879 331.069,104.306 C329.924,104.732 328.716,104.941 327.455,104.941 C323.915,104.941 320.936,103.525 318.531,100.702 C316.125,97.87 314.917,94.35 314.917,90.142 C314.917,85.706 316.271,82.04 318.978,79.155 C321.676,76.271 325.092,74.823 329.226,74.823 C330.184,74.823 331.173,74.958 332.215,75.219 C333.246,75.479 334.402,75.896 335.662,76.437 L343.837,76.135 z M351.998,94.381 L351.998,83.363 L347.999,83.363 L347.999,76.135 L351.998,76.135 L351.998,67.898 L361.767,66.586 L361.767,76.135 L368.265,76.135 L368.265,83.363 L361.767,83.363 L361.767,95.047 C361.767,97.536 362.1,99.328 362.777,100.442 C363.443,101.546 364.703,102.567 366.557,103.504 L355.695,104.243 C354.331,103.587 353.373,102.618 352.821,101.327 C352.269,100.036 351.998,97.724 351.998,94.381 z M379.217,87.31 L391.151,86.945 L391.151,86.518 C391.151,85.071 390.641,83.883 389.621,82.957 C388.61,82.03 387.329,81.572 385.778,81.572 C384.049,81.572 382.601,82.071 381.445,83.082 C380.279,84.092 379.54,85.498 379.217,87.31 z M397.462,93.808 L396.4,102.254 C394.525,103.15 392.682,103.816 390.87,104.243 C389.058,104.67 387.236,104.878 385.382,104.878 C380.8,104.878 377.113,103.566 374.301,100.931 C371.5,98.297 370.094,94.86 370.094,90.632 C370.094,86.216 371.625,82.488 374.697,79.447 C377.769,76.406 381.508,74.886 385.903,74.886 C389.662,74.886 392.745,76 395.161,78.228 C397.566,80.457 398.775,83.342 398.775,86.883 C398.775,87.424 398.733,88.299 398.65,89.507 L398.618,89.684 L397.764,90.934 L378.998,91.454 C379.144,93.308 379.915,94.808 381.32,95.954 C382.727,97.109 384.497,97.682 386.632,97.682 C388.131,97.682 389.808,97.359 391.651,96.703 C393.494,96.058 395.432,95.089 397.462,93.808 z M202.074,135.436 C202.074,139.279 203.199,142.496 205.448,145.09 C207.698,147.683 210.468,148.984 213.759,148.984 C217.07,148.984 219.851,147.693 222.09,145.11 C224.329,142.528 225.443,139.299 225.443,135.436 C225.443,131.551 224.329,128.312 222.09,125.719 C219.851,123.126 217.07,121.824 213.759,121.824 C210.468,121.824 207.698,123.126 205.448,125.719 C203.199,128.312 202.074,131.551 202.074,135.436 z M191.212,135.436 C191.212,132.166 191.775,129.093 192.91,126.24 C194.034,123.376 195.701,120.825 197.898,118.565 C199.97,116.409 202.376,114.753 205.125,113.608 C207.875,112.452 210.749,111.879 213.759,111.879 C216.768,111.879 219.653,112.462 222.413,113.618 C225.162,114.774 227.609,116.451 229.744,118.627 C231.9,120.804 233.535,123.314 234.639,126.177 C235.753,129.031 236.305,132.124 236.305,135.436 C236.305,138.206 235.92,140.809 235.149,143.246 C234.368,145.683 233.223,147.912 231.702,149.932 C229.546,152.796 226.891,155.025 223.746,156.608 C220.611,158.201 217.279,158.992 213.759,158.992 C210.77,158.992 207.906,158.409 205.167,157.253 C202.438,156.097 200.012,154.421 197.898,152.244 C195.701,149.995 194.034,147.443 192.91,144.6 C191.775,141.767 191.212,138.706 191.212,135.436 z M259.535,130.062 L259.535,137.289 L252.975,137.289 L252.975,157.555 L243.206,157.555 L243.206,137.289 L239.207,137.289 L239.207,130.062 L243.206,130.062 L243.206,127.625 C243.206,124.199 243.737,121.272 244.789,118.836 C245.851,116.388 247.288,114.784 249.1,114.014 L259.962,112.702 L259.962,115.691 C257.598,116.284 255.849,117.409 254.703,119.065 C253.547,120.72 252.975,122.97 252.975,125.823 L252.975,130.062 L259.535,130.062 z M280.808,130.062 L280.808,137.289 L274.247,137.289 L274.247,157.555 L264.478,157.555 L264.478,137.289 L260.479,137.289 L260.479,130.062 L264.478,130.062 L264.478,127.625 C264.478,124.199 265.009,121.272 266.061,118.836 C267.123,116.388 268.561,114.784 270.373,114.014 L281.235,112.702 L281.235,115.691 C278.871,116.284 277.121,117.409 275.975,119.065 C274.819,120.72 274.247,122.97 274.247,125.823 L274.247,130.062 L280.808,130.062 z M283.491,119.804 C283.491,118.336 284.001,117.096 285.022,116.086 C286.032,115.066 287.271,114.555 288.74,114.555 C290.229,114.555 291.468,115.055 292.478,116.065 C293.488,117.076 293.988,118.315 293.988,119.804 C293.988,121.272 293.478,122.522 292.457,123.564 C291.447,124.595 290.208,125.115 288.74,125.115 C287.313,125.115 286.084,124.595 285.042,123.543 C284.011,122.491 283.491,121.252 283.491,119.804 z M293.624,157.555 L283.949,157.555 L283.949,130.062 L293.624,128.75 L293.624,157.555 z M324.081,156.004 C322.394,156.951 320.728,157.659 319.093,158.118 C317.458,158.576 315.771,158.805 314.042,158.805 C309.47,158.805 305.711,157.43 302.764,154.681 C299.827,151.942 298.359,148.464 298.359,144.246 C298.359,139.882 299.942,136.206 303.107,133.249 C306.263,130.291 310.241,128.812 315.021,128.812 C316.771,128.812 318.479,129.01 320.145,129.406 C321.811,129.801 323.425,130.395 324.967,131.187 L323.894,139.737 C322.394,138.82 320.947,138.123 319.551,137.644 C318.156,137.164 316.854,136.925 315.656,136.925 C313.501,136.925 311.71,137.581 310.283,138.893 C308.856,140.205 308.148,141.84 308.148,143.798 C308.148,145.871 308.814,147.537 310.137,148.797 C311.46,150.057 313.199,150.692 315.354,150.692 C316.698,150.692 318.125,150.401 319.655,149.817 C321.186,149.245 322.957,148.297 324.967,146.995 L324.081,156.004 z M337.241,141.236 L349.176,140.872 L349.176,140.445 C349.176,138.997 348.665,137.81 347.645,136.883 C346.635,135.956 345.354,135.498 343.802,135.498 C342.073,135.498 340.626,135.998 339.47,137.008 C338.303,138.018 337.564,139.424 337.241,141.236 z M355.487,147.735 L354.424,156.18 C352.55,157.076 350.707,157.743 348.894,158.17 C347.083,158.597 345.26,158.805 343.406,158.805 C338.824,158.805 335.137,157.493 332.326,154.858 C329.524,152.223 328.118,148.787 328.118,144.558 C328.118,140.143 329.649,136.415 332.721,133.374 C335.794,130.333 339.532,128.812 343.927,128.812 C347.687,128.812 350.769,129.926 353.185,132.155 C355.591,134.384 356.799,137.268 356.799,140.809 C356.799,141.351 356.757,142.226 356.674,143.434 L356.643,143.611 L355.789,144.861 L337.022,145.381 C337.168,147.235 337.939,148.734 339.345,149.88 C340.751,151.036 342.521,151.609 344.656,151.609 C346.156,151.609 347.832,151.286 349.676,150.63 C351.519,149.984 353.456,149.016 355.487,147.735" fill="#1A1919"/>
  </g>
</svg>
